<svg xmlns="http://www.w3.org/2000/svg" width="360" height="180" viewBox="0 0 360 180" role="img" aria-labelledby="title desc">
  <title id="title">22 Local Marketing stacked logo</title>
  <desc id="desc">Orange rounded square mark above stacked Sora wordmark converted to vector paths.</desc>
  <rect width="360" height="180" fill="none"/>
  <rect x="36" y="28" width="22" height="22" rx="4" fill="#FB5607"/>
  <path fill="#0A0A0A" d="M58.27 91L38.05 91L38.05 84.92Q38.05 83.10 38.68 81.71Q39.31 80.32 40.66 79.26Q42 78.19 44.17 77.28L48.39 75.50Q50.02 74.81 50.76 73.86Q51.50 72.91 51.50 71.47Q51.50 70.14 50.61 69.21Q49.72 68.28 48.01 68.28Q46.26 68.28 45.39 69.25Q44.51 70.21 44.51 71.85L37.67 71.85Q37.67 69.11 38.85 66.98Q40.03 64.86 42.33 63.64Q44.63 62.42 48.01 62.42Q51.35 62.42 53.65 63.58Q55.95 64.74 57.15 66.74Q58.34 68.73 58.34 71.24L58.34 71.70Q58.34 74.93 56.60 77.02Q54.85 79.11 50.97 80.78L46.75 82.56Q45.84 82.94 45.41 83.40Q44.97 83.86 44.97 84.62L44.97 85.98L43.33 84.92L58.27 84.92 M80.44 91L60.22 91L60.22 84.92Q60.22 83.10 60.85 81.71Q61.47 80.32 62.82 79.26Q64.17 78.19 66.34 77.28L70.56 75.50Q72.19 74.81 72.93 73.86Q73.67 72.91 73.67 71.47Q73.67 70.14 72.78 69.21Q71.89 68.28 70.18 68.28Q68.43 68.28 67.55 69.25Q66.68 70.21 66.68 71.85L59.84 71.85Q59.84 69.11 61.02 66.98Q62.20 64.86 64.50 63.64Q66.79 62.42 70.18 62.42Q73.52 62.42 75.82 63.58Q78.12 64.74 79.31 66.74Q80.51 68.73 80.51 71.24L80.51 71.70Q80.51 74.93 78.76 77.02Q77.02 79.11 73.14 80.78L68.92 82.56Q68.01 82.94 67.57 83.40Q67.14 83.86 67.14 84.62L67.14 85.98L65.50 84.92L80.44 84.92 M95.97 91L88.90 91L88.90 63.26L95.97 63.26L95.97 91M106.46 91L95.21 91L95.21 84.84L106.46 84.84 M118.40 91.76Q115.63 91.76 113.46 90.92Q111.30 90.09 109.79 88.61Q108.29 87.12 107.51 85.19Q106.74 83.25 106.74 81.04L106.74 80.13Q106.74 77.85 107.55 75.88Q108.37 73.90 109.89 72.42Q111.41 70.94 113.58 70.10Q115.74 69.26 118.40 69.26Q121.10 69.26 123.25 70.10Q125.39 70.94 126.91 72.42Q128.43 73.90 129.25 75.88Q130.07 77.85 130.07 80.13L130.07 81.04Q130.07 83.25 129.29 85.19Q128.51 87.12 127.01 88.61Q125.51 90.09 123.34 90.92Q121.18 91.76 118.40 91.76M118.40 85.98Q120 85.98 121.04 85.30Q122.09 84.62 122.62 83.38Q123.15 82.15 123.15 80.59Q123.15 78.95 122.60 77.72Q122.05 76.48 120.99 75.76Q119.92 75.04 118.40 75.04Q116.88 75.04 115.82 75.76Q114.75 76.48 114.20 77.72Q113.65 78.95 113.65 80.59Q113.65 82.15 114.18 83.38Q114.72 84.62 115.78 85.30Q116.84 85.98 118.40 85.98 M141.44 91.76Q138.71 91.76 136.69 90.87Q134.68 89.97 133.33 88.45Q131.98 86.93 131.32 85Q130.65 83.06 130.65 80.97L130.65 80.21Q130.65 78 131.35 76.03Q132.06 74.05 133.43 72.53Q134.79 71.01 136.81 70.14Q138.82 69.26 141.44 69.26Q144.33 69.26 146.54 70.40Q148.74 71.54 150.05 73.54Q151.36 75.53 151.51 78.12L144.75 78.12Q144.64 76.86 143.82 75.99Q143 75.12 141.44 75.12Q140.11 75.12 139.26 75.80Q138.40 76.48 137.99 77.70Q137.57 78.92 137.57 80.59Q137.57 82.15 137.93 83.36Q138.29 84.58 139.14 85.24Q140 85.91 141.44 85.91Q142.51 85.91 143.23 85.53Q143.95 85.15 144.37 84.44Q144.79 83.74 144.90 82.79L151.67 82.79Q151.51 85.45 150.16 87.47Q148.82 89.48 146.57 90.62Q144.33 91.76 141.44 91.76 M171.33 91L165.85 91L165.85 84.84L164.71 84.84L164.71 78.27Q164.71 76.83 164.05 76.12Q163.38 75.42 161.86 75.42Q161.14 75.42 159.74 75.46Q158.33 75.50 156.77 75.57Q155.21 75.65 153.92 75.72L153.92 69.95Q154.83 69.87 156.09 69.80Q157.34 69.72 158.69 69.68Q160.04 69.64 161.18 69.64Q164.41 69.64 166.67 70.59Q168.93 71.54 170.13 73.44Q171.33 75.34 171.33 78.27L171.33 91M159.20 91.53Q157 91.53 155.29 90.73Q153.58 89.94 152.61 88.44Q151.64 86.93 151.64 84.84Q151.64 82.49 152.90 81.03Q154.15 79.56 156.35 78.88Q158.56 78.19 161.41 78.19L165.47 78.19L165.47 81.77L161.41 81.77Q160 81.77 159.24 82.47Q158.48 83.17 158.48 84.35Q158.48 85.49 159.24 86.19Q160 86.90 161.41 86.90Q162.32 86.90 163.02 86.57Q163.73 86.25 164.18 85.45Q164.64 84.65 164.71 83.25L166.31 84.77Q166.12 86.93 165.26 88.44Q164.41 89.94 162.91 90.73Q161.41 91.53 159.20 91.53 M181.18 91L174.27 91L174.27 63.26L181.18 63.26L181.18 91M181.18 68.28L171.91 68.28L171.91 63.26L181.18 63.26"/>
  <path fill="#0A0A0A" d="M41.10 130L37.80 130L37.80 113.94L42.78 113.94L46.45 122.96L46.87 122.96L50.50 113.94L55.56 113.94L55.56 130L51.99 130L51.99 116.29L52.50 116.34L48.25 126.74L44.82 126.74L40.55 116.34L41.10 116.29 M64.06 130L60.45 130L65.75 113.94L71.58 113.94L77.08 130L73.34 130L68.90 116.43L70.04 116.89L67.20 116.89L68.39 116.43L64.06 130M72.99 126.02L64.47 126.02L65.57 123.03L71.87 123.03 M85.58 130L81.97 130L81.97 113.81L85.58 113.81L85.58 130M95.90 130L91.72 130L87.01 123.09L90.97 123.09L95.90 130M88.28 124.85L84.61 124.85L84.61 122.01L88.57 122.01Q89.36 122.01 89.94 121.69Q90.53 121.38 90.85 120.79Q91.17 120.21 91.17 119.44Q91.17 118.67 90.85 118.09Q90.53 117.50 89.94 117.19Q89.36 116.87 88.57 116.87L84.61 116.87L84.61 113.81L88.28 113.81Q90.29 113.81 91.76 114.41Q93.23 115.02 94.03 116.21Q94.82 117.39 94.82 119.20L94.82 119.55Q94.82 121.33 94.02 122.51Q93.21 123.69 91.75 124.27Q90.29 124.85 88.28 124.85 M115.75 130L111.39 130L105.85 122.50L103.62 122.50L110.36 113.94L114.49 113.94L108.44 121.62L108.40 120.06L115.75 130M104.44 130L100.83 130L100.83 113.94L104.44 113.94 M123.69 130L120.17 130L120.17 113.94L123.69 113.94L123.69 130M130.27 130L123.25 130L123.25 127.01L130.27 127.01L130.27 130M129.77 123.33L123.25 123.33L123.25 120.34L129.77 120.34L129.77 123.33M130.12 116.93L123.25 116.93L123.25 113.94L130.12 113.94 M142.84 130L139.23 130L139.23 116.65L142.84 116.65L142.84 130M147.37 117.09L134.72 117.09L134.72 113.94L147.37 113.94 M156.09 130L152.48 130L152.48 113.94L156.09 113.94 M165.89 130L162.54 130L162.54 113.94L168.46 113.94L174.51 127.07L175.26 127.07L174.82 127.47L174.82 113.94L178.21 113.94L178.21 130L172.24 130L166.19 116.87L165.45 116.87L165.89 116.47 M192.23 130.42Q190.07 130.42 188.46 129.70Q186.86 128.99 185.81 127.78Q184.77 126.57 184.26 125.09Q183.76 123.62 183.76 122.15L183.76 121.66Q183.76 120.14 184.26 118.69Q184.77 117.24 185.79 116.05Q186.81 114.86 188.34 114.16Q189.87 113.46 191.87 113.46Q194.05 113.46 195.72 114.26Q197.40 115.06 198.41 116.48Q199.42 117.90 199.57 119.77L195.97 119.77Q195.83 118.89 195.27 118.23Q194.71 117.57 193.84 117.20Q192.97 116.82 191.87 116.82Q190.82 116.82 189.99 117.20Q189.17 117.57 188.59 118.25Q188 118.93 187.71 119.87Q187.41 120.80 187.41 121.93Q187.41 123.09 187.73 124.05Q188.05 125.01 188.66 125.70Q189.28 126.39 190.19 126.77Q191.10 127.14 192.23 127.14Q193.72 127.14 194.82 126.52Q195.92 125.91 196.41 124.90L195.97 127.36L195.97 123.53L199.29 123.53L199.29 126.96Q198.25 128.64 196.44 129.53Q194.62 130.42 192.23 130.42M200.61 124.24L191.76 124.24L191.76 121.64L200.61 121.64"/>
</svg>
