<svg xmlns="http://www.w3.org/2000/svg" width="520" height="96" viewBox="0 0 520 96" role="img" aria-labelledby="title desc">
  <title id="title">22 Local Marketing primary logo</title>
  <desc id="desc">Orange rounded square mark with Sora wordmark converted to vector paths.</desc>
  <rect width="520" height="96" fill="none"/>
  <rect x="24" y="37" width="22" height="22" rx="4" fill="#FB5607"/>
  <path fill="#0A0A0A" d="M81.92 59L63.84 59L63.84 53.56Q63.84 51.93 64.40 50.69Q64.96 49.45 66.17 48.49Q67.37 47.54 69.31 46.73L73.08 45.13Q74.55 44.52 75.21 43.67Q75.87 42.82 75.87 41.52Q75.87 40.33 75.07 39.50Q74.27 38.67 72.74 38.67Q71.18 38.67 70.40 39.53Q69.62 40.40 69.62 41.86L63.50 41.86Q63.50 39.42 64.55 37.51Q65.60 35.61 67.66 34.52Q69.72 33.43 72.74 33.43Q75.74 33.43 77.79 34.47Q79.85 35.51 80.92 37.29Q81.99 39.08 81.99 41.32L81.99 41.73Q81.99 44.62 80.43 46.49Q78.86 48.36 75.40 49.85L71.62 51.45Q70.81 51.79 70.42 52.20Q70.02 52.61 70.02 53.29L70.02 54.51L68.56 53.56L81.92 53.56 M101.75 59L83.66 59L83.66 53.56Q83.66 51.93 84.22 50.69Q84.78 49.45 85.99 48.49Q87.20 47.54 89.13 46.73L92.91 45.13Q94.37 44.52 95.03 43.67Q95.70 42.82 95.70 41.52Q95.70 40.33 94.90 39.50Q94.10 38.67 92.57 38.67Q91 38.67 90.22 39.53Q89.44 40.40 89.44 41.86L83.32 41.86Q83.32 39.42 84.37 37.51Q85.43 35.61 87.48 34.52Q89.54 33.43 92.57 33.43Q95.56 33.43 97.62 34.47Q99.67 35.51 100.75 37.29Q101.82 39.08 101.82 41.32L101.82 41.73Q101.82 44.62 100.25 46.49Q98.69 48.36 95.22 49.85L91.45 51.45Q90.63 51.79 90.24 52.20Q89.85 52.61 89.85 53.29L89.85 54.51L88.39 53.56L101.75 53.56 M115.62 59L109.30 59L109.30 34.18L115.62 34.18L115.62 59M125.01 59L114.94 59L114.94 53.49L125.01 53.49 M135.69 59.68Q133.20 59.68 131.27 58.93Q129.33 58.18 127.98 56.86Q126.64 55.53 125.94 53.80Q125.25 52.06 125.25 50.09L125.25 49.28Q125.25 47.24 125.98 45.47Q126.71 43.70 128.07 42.37Q129.43 41.05 131.37 40.30Q133.31 39.55 135.69 39.55Q138.10 39.55 140.02 40.30Q141.94 41.05 143.30 42.37Q144.66 43.70 145.39 45.47Q146.12 47.24 146.12 49.28L146.12 50.09Q146.12 52.06 145.43 53.80Q144.73 55.53 143.39 56.86Q142.04 58.18 140.11 58.93Q138.17 59.68 135.69 59.68M135.69 54.51Q137.11 54.51 138.05 53.90Q138.98 53.29 139.46 52.18Q139.94 51.08 139.94 49.68Q139.94 48.22 139.44 47.12Q138.95 46.01 138 45.37Q137.05 44.72 135.69 44.72Q134.33 44.72 133.37 45.37Q132.42 46.01 131.93 47.12Q131.44 48.22 131.44 49.68Q131.44 51.08 131.91 52.18Q132.39 53.29 133.34 53.90Q134.29 54.51 135.69 54.51 M156.29 59.68Q153.84 59.68 152.04 58.88Q150.24 58.08 149.03 56.72Q147.83 55.36 147.23 53.63Q146.64 51.89 146.64 50.02L146.64 49.34Q146.64 47.37 147.26 45.60Q147.89 43.84 149.12 42.48Q150.34 41.12 152.14 40.33Q153.95 39.55 156.29 39.55Q158.88 39.55 160.85 40.57Q162.82 41.59 163.99 43.38Q165.17 45.16 165.30 47.47L159.25 47.47Q159.15 46.35 158.42 45.57Q157.69 44.79 156.29 44.79Q155.10 44.79 154.34 45.40Q153.57 46.01 153.20 47.10Q152.82 48.19 152.82 49.68Q152.82 51.08 153.15 52.17Q153.47 53.25 154.23 53.85Q155 54.44 156.29 54.44Q157.24 54.44 157.89 54.10Q158.54 53.76 158.91 53.13Q159.28 52.51 159.39 51.66L165.44 51.66Q165.30 54.04 164.09 55.84Q162.89 57.64 160.88 58.66Q158.88 59.68 156.29 59.68 M183.02 59L178.12 59L178.12 53.49L177.10 53.49L177.10 47.61Q177.10 46.32 176.51 45.69Q175.91 45.06 174.55 45.06Q173.91 45.06 172.65 45.09Q171.39 45.13 170 45.20Q168.60 45.26 167.45 45.33L167.45 40.16Q168.26 40.10 169.38 40.03Q170.51 39.96 171.71 39.93Q172.92 39.89 173.94 39.89Q176.83 39.89 178.85 40.74Q180.88 41.59 181.95 43.29Q183.02 44.99 183.02 47.61L183.02 59M172.17 59.48Q170.20 59.48 168.67 58.76Q167.14 58.05 166.27 56.70Q165.41 55.36 165.41 53.49Q165.41 51.38 166.53 50.08Q167.65 48.77 169.62 48.15Q171.59 47.54 174.14 47.54L177.78 47.54L177.78 50.74L174.14 50.74Q172.89 50.74 172.21 51.37Q171.53 52 171.53 53.05Q171.53 54.07 172.21 54.70Q172.89 55.33 174.14 55.33Q174.96 55.33 175.59 55.04Q176.22 54.75 176.63 54.04Q177.03 53.32 177.10 52.06L178.53 53.42Q178.36 55.36 177.59 56.70Q176.83 58.05 175.49 58.76Q174.14 59.48 172.17 59.48 M191.83 59L185.64 59L185.64 34.18L191.83 34.18L191.83 59M191.83 38.67L183.53 38.67L183.53 34.18L191.83 34.18 M205.77 59L199.99 59L199.99 34.18L208.76 34.18L213.86 47.27L214.54 47.27L219.61 34.18L228.55 34.18L228.55 59L222.29 59L222.29 37.82L223.28 37.89L216.89 54L211.14 54L204.72 37.89L205.77 37.82 M247.76 59L242.87 59L242.87 53.49L241.85 53.49L241.85 47.61Q241.85 46.32 241.25 45.69Q240.66 45.06 239.30 45.06Q238.65 45.06 237.39 45.09Q236.13 45.13 234.74 45.20Q233.35 45.26 232.19 45.33L232.19 40.16Q233.01 40.10 234.13 40.03Q235.25 39.96 236.46 39.93Q237.66 39.89 238.68 39.89Q241.57 39.89 243.60 40.74Q245.62 41.59 246.69 43.29Q247.76 44.99 247.76 47.61L247.76 59M236.92 59.48Q234.94 59.48 233.41 58.76Q231.88 58.05 231.02 56.70Q230.15 55.36 230.15 53.49Q230.15 51.38 231.27 50.08Q232.39 48.77 234.37 48.15Q236.34 47.54 238.89 47.54L242.53 47.54L242.53 50.74L238.89 50.74Q237.63 50.74 236.95 51.37Q236.27 52 236.27 53.05Q236.27 54.07 236.95 54.70Q237.63 55.33 238.89 55.33Q239.70 55.33 240.33 55.04Q240.96 54.75 241.37 54.04Q241.78 53.32 241.85 52.06L243.27 53.42Q243.10 55.36 242.34 56.70Q241.57 58.05 240.23 58.76Q238.89 59.48 236.92 59.48 M256.30 59L250.11 59L250.11 40.23L255.01 40.23L255.01 48.39L254.94 48.39Q254.94 44.45 256.59 42.20Q258.24 39.96 261.33 39.96L262.08 39.96L262.08 45.26L260.65 45.26Q258.58 45.26 257.44 46.39Q256.30 47.51 256.30 49.62 M282.96 59L276.05 59L270.51 50.23L268 50.23L275.34 40.23L281.80 40.23L274.83 49.65L274.83 46.66L282.96 59M268.91 59L262.73 59L262.73 34.18L268.91 34.18 M292.21 59.68Q289.83 59.68 287.99 58.86Q286.15 58.05 284.90 56.65Q283.64 55.26 282.97 53.53Q282.31 51.79 282.31 49.96L282.31 49.28Q282.31 47.37 282.97 45.62Q283.64 43.87 284.88 42.51Q286.12 41.15 287.92 40.35Q289.72 39.55 292 39.55Q295.03 39.55 297.14 40.91Q299.24 42.27 300.37 44.50Q301.49 46.73 301.49 49.34L301.49 51.32L284.90 51.32L284.90 47.98L297.92 47.98L295.78 49.48Q295.78 47.88 295.35 46.78Q294.93 45.67 294.09 45.09Q293.26 44.52 292 44.52Q290.78 44.52 289.88 45.08Q288.98 45.64 288.50 46.78Q288.02 47.92 288.02 49.65Q288.02 51.21 288.47 52.35Q288.91 53.49 289.83 54.10Q290.74 54.72 292.21 54.72Q293.50 54.72 294.33 54.27Q295.16 53.83 295.50 53.08L301.15 53.08Q300.74 54.99 299.53 56.48Q298.33 57.98 296.47 58.83Q294.62 59.68 292.21 59.68 M314.44 59.27L311.89 59.27Q308.83 59.27 307.01 58.52Q305.20 57.78 304.38 56.04Q303.56 54.31 303.56 51.35L303.60 35.34L309.31 35.34L309.28 51.52Q309.28 52.78 309.94 53.44Q310.60 54.10 311.86 54.10L314.44 54.10L314.44 59.27M314.44 44.72L300.84 44.72L300.84 40.23L314.44 40.23 M323.05 59L316.86 59L316.86 40.23L323.05 40.23L323.05 59M323.05 44.72L314.48 44.72L314.48 40.23L323.05 40.23L323.05 44.72M319.41 38.74Q317.71 38.74 316.91 37.87Q316.11 37 316.11 35.64Q316.11 34.28 316.91 33.41Q317.71 32.55 319.38 32.55Q321.08 32.55 321.86 33.41Q322.64 34.28 322.64 35.64Q322.64 37 321.86 37.87Q321.08 38.74 319.41 38.74 M331.99 59L325.80 59L325.80 40.23L330.70 40.23L330.70 48.29L330.43 48.29Q330.43 45.37 331.18 43.45Q331.92 41.52 333.40 40.57Q334.88 39.62 336.99 39.62L337.26 39.62Q340.46 39.62 342.21 41.74Q343.96 43.87 343.96 48.26L343.96 59L337.77 59L337.77 48.09Q337.77 46.79 337.01 45.96Q336.24 45.13 334.92 45.13Q333.59 45.13 332.79 45.96Q331.99 46.79 331.99 48.15 M353.82 66.51Q352.43 66.51 350.95 66.41Q349.47 66.31 348.28 66.14L348.28 60.97Q349.47 61.11 350.93 61.23Q352.39 61.35 353.62 61.35Q355.73 61.35 357.07 60.90Q358.41 60.46 359.06 59.54Q359.70 58.63 359.70 57.20L359.70 53.39L360.66 51.35Q360.59 53.73 359.74 55.48Q358.89 57.23 357.31 58.18Q355.73 59.14 353.48 59.14Q351.58 59.14 350.05 58.46Q348.52 57.78 347.45 56.53Q346.38 55.29 345.80 53.59Q345.22 51.89 345.22 49.89L345.22 49.07Q345.22 47.07 345.83 45.35Q346.44 43.63 347.60 42.36Q348.76 41.08 350.34 40.38Q351.92 39.69 353.86 39.69Q356.10 39.69 357.73 40.69Q359.36 41.69 360.28 43.60Q361.20 45.50 361.27 48.22L360.59 48.46L360.59 40.23L365.48 40.23L365.48 56.79Q365.48 60.26 364.19 62.40Q362.90 64.54 360.30 65.53Q357.70 66.51 353.82 66.51M355.56 54.04Q356.68 54.04 357.58 53.53Q358.48 53.02 359.02 52.05Q359.57 51.08 359.57 49.72L359.57 48.90Q359.57 47.58 359.01 46.66Q358.45 45.74 357.53 45.26Q356.61 44.79 355.56 44.79Q354.33 44.79 353.40 45.37Q352.46 45.94 351.93 47Q351.41 48.05 351.41 49.48Q351.41 50.91 351.93 51.93Q352.46 52.95 353.40 53.49Q354.33 54.04 355.56 54.04"/>
</svg>
