<svg xmlns="http://www.w3.org/2000/svg" width="1080" height="1080" viewBox="0 0 1080 1080" role="img" aria-labelledby="title desc">
  <title id="title">22 Local Marketing informational Facebook post</title>
  <desc id="desc">Informational post following the 22 Local Marketing brand kit.</desc>
  <style>
    @import url('https://fonts.googleapis.com/css2?family=Sora:wght@400;500;600;700;800&amp;display=swap');
    text { font-family: 'Sora', Arial, sans-serif; }
  </style>
  <rect width="1080" height="1080" fill="#F8F6F2"/>
  <rect x="86" y="86" width="908" height="908" rx="10" fill="#0A0A0A"/>
  <rect x="74" y="74" width="908" height="908" rx="10" fill="#FFFFFF" stroke="#0A0A0A" stroke-width="3"/>
  <path d="M120 120H196M120 120V196" fill="none" stroke="#FB5607" stroke-width="7"/>
  <path d="M936 936H860M936 936V860" fill="none" stroke="#FB5607" stroke-width="7"/>
  <rect x="128" y="132" width="14" height="14" rx="3" fill="#FB5607"/>
  <text x="158" y="147" fill="#0A0A0A" font-size="29" font-weight="800" letter-spacing="-1.1">22 Local Marketing</text>
  <line x1="128" y1="232" x2="166" y2="232" stroke="#FB5607" stroke-width="5"/>
  <text x="184" y="241" fill="#FB5607" font-size="24" font-weight="700" letter-spacing="3.2">QUICK_FIX</text>
  <text x="128" y="382" fill="#0A0A0A" font-size="78" font-weight="800" letter-spacing="-4.5">Your website</text>
  <text x="128" y="470" fill="#0A0A0A" font-size="78" font-weight="800" letter-spacing="-4.5">should answer</text>
  <text x="128" y="558" fill="#0A0A0A" font-size="78" font-weight="800" letter-spacing="-4.5">the phone first.</text>
  <rect x="140" y="646" width="770" height="220" rx="10" fill="#0A0A0A"/>
  <rect x="128" y="634" width="770" height="220" rx="10" fill="#F8F6F2" stroke="#0A0A0A" stroke-width="3"/>
  <text x="164" y="701" fill="#525252" font-size="28" font-weight="600">Before a customer calls, they need to know:</text>
  <text x="164" y="765" fill="#0A0A0A" font-size="29" font-weight="800">01  You serve their area</text>
  <text x="164" y="815" fill="#0A0A0A" font-size="29" font-weight="800">02  You have proof they can trust</text>
  <text x="164" y="865" fill="#0A0A0A" font-size="29" font-weight="800">03  Booking the job is easy</text>
  <text x="128" y="936" fill="#525252" font-size="22" font-weight="700">Save this before your next site update.</text>
</svg>
