<svg xmlns="http://www.w3.org/2000/svg" width="1080" height="1080" viewBox="0 0 1080 1080" role="img" aria-labelledby="title desc">
  <title id="title">22 Local Marketing local audit CTA Facebook post</title>
  <desc id="desc">Call-to-action post following the 22 Local Marketing brand kit.</desc>
  <style>
    @import url('https://fonts.googleapis.com/css2?family=Sora:wght@400;500;600;700;800&amp;display=swap');
    text { font-family: 'Sora', Arial, sans-serif; }
  </style>
  <rect width="1080" height="1080" fill="#F8F6F2"/>
  <rect x="88" y="88" width="904" height="904" rx="10" fill="#0A0A0A"/>
  <rect x="76" y="76" width="904" height="904" rx="10" fill="#FFFFFF" stroke="#0A0A0A" stroke-width="3"/>
  <path d="M122 122H198M122 122V198" fill="none" stroke="#FB5607" stroke-width="7"/>
  <path d="M934 934H858M934 934V858" fill="none" stroke="#FB5607" stroke-width="7"/>
  <rect x="128" y="132" width="14" height="14" rx="3" fill="#FB5607"/>
  <text x="158" y="147" fill="#0A0A0A" font-size="29" font-weight="800" letter-spacing="-1.1">22 Local Marketing</text>
  <line x1="128" y1="238" x2="166" y2="238" stroke="#FB5607" stroke-width="5"/>
  <text x="184" y="247" fill="#FB5607" font-size="24" font-weight="700" letter-spacing="3.2">FREE_LOCAL_AUDIT</text>
  <text x="128" y="384" fill="#0A0A0A" font-size="78" font-weight="800" letter-spacing="-4.5">Find out why</text>
  <text x="128" y="472" fill="#0A0A0A" font-size="78" font-weight="800" letter-spacing="-4.5">competitors</text>
  <text x="128" y="560" fill="#0A0A0A" font-size="78" font-weight="800" letter-spacing="-4.5">rank above you.</text>
  <text x="128" y="664" fill="#525252" font-size="31" font-weight="500">We review your website, map visibility,</text>
  <text x="128" y="711" fill="#525252" font-size="31" font-weight="500">reviews, and service-area pages.</text>
  <rect x="140" y="812" width="336" height="82" rx="6" fill="#0A0A0A"/>
  <rect x="128" y="800" width="336" height="82" rx="6" fill="#FB5607" stroke="#0A0A0A" stroke-width="3"/>
  <text x="164" y="853" fill="#FFFFFF" font-size="29" font-weight="800">Book the audit</text>
  <text x="128" y="944" fill="#525252" font-size="23" font-weight="700">22localmarketing.com</text>
</svg>
